# xmcd
#
# Track frame offsets:
#	150
#	8482
#	16712
#	33487
#	45665
#	62882
#	84217
#	98167
#	113050
#	129052
#	140822
#	164632
#	168117
#	184804
#	204404
#	221084
#	237322
#	259874
#	262454
#	286604
#	297644
#	315957
#	334169
#
# Disc length: 4778 seconds
#
# Revision: 1
# Processed by: cddbd v1.5.2PL0 Copyright (c) Steve Scherf et al.
# Submitted via: audiograbber 1.83.01
#
DISCID=4812a817
DTITLE=Love Song - Love Song/Final Touch
DYEAR=1900
DGENRE=
TTITLE0=A Love Song
TTITLE1=Changes
TTITLE2=Two Hands
TTITLE3=Little Country Church
TTITLE4=Freedom
TTITLE5=Welcome Back
TTITLE6=Front Seat, Back Seat
TTITLE7=Let Us Be One
TTITLE8=And The Wind Was Low
TTITLE9=A Brand New Song
TTITLE10=Feel The Love
TTITLE11=A Love Song (Reprise)
TTITLE12=Since I Opened Up The Door
TTITLE13=Joyous Lament
TTITLE14=Jesus Puts The Song In Our Hearts
TTITLE15=The Cossack Song
TTITLE16=Think About What Jesus Said
TTITLE17=Short Alleluiah
TTITLE18=Living Water
TTITLE19=Sunday Afternoon
TTITLE20=Book Of Life
TTITLE21=Don't You Know?
TTITLE22=Little Pilgrim
EXTD=
EXTT0=
EXTT1=
EXTT2=
EXTT3=
EXTT4=
EXTT5=
EXTT6=
EXTT7=
EXTT8=
EXTT9=
EXTT10=
EXTT11=
EXTT12=
EXTT13=
EXTT14=
EXTT15=
EXTT16=
EXTT17=
EXTT18=
EXTT19=
EXTT20=
EXTT21=
EXTT22=
PLAYORDER=
